<svg xmlns="http://www.w3.org/2000/svg"><g transform="translate(150,150) scale(2) translate(-150,-150)"><path fill="none" stroke="#00f" stroke-width="3" d="M203,140 C206,359 245,6 248,212"/><path fill="none" stroke="green" stroke-width="3" d="M177,204 C441,204 8,149 265,154"/><polyline fill="none" stroke="#fff" points="203 140 203.385 158.89 203.967 174.635 204.734 187.444 205.672 197.521 206.201 201.601 206.768 205.076 207.372 207.972 208.01 210.315 208.681 212.13 209.383 213.444 210.115 214.283 210.875 214.672 211.661 214.637 212.472 214.205 213.307 213.4 214.162 212.25 215.037 210.779 215.931 209.014 216.841 206.981 217.766 204.705 219.653 199.53 221.58 193.695 223.533 187.407 225.5 180.875 227.467 174.305 229.42 167.903 231.347 161.878 233.234 156.436 235.069 151.784 236.838 148.129 237.693 146.741 238.528 145.679 239.339 144.97 240.125 144.641 240.885 144.715 241.617 145.221 242.319 146.183 242.99 147.627 243.628 149.579 244.232 152.065 244.799 155.112 245.328 158.744 246.266 167.87 247.033 179.65 247.615 194.291 248 212"/><polyline fill="none" stroke="#fff" points="177 204 199.75 203.842 218.671 203.384 226.774 203.048 234.015 202.645 240.425 202.177 246.037 201.646 250.882 201.057 254.991 200.41 258.397 199.71 261.131 198.957 263.225 198.156 264.711 197.308 265.236 196.868 265.62 196.417 265.868 195.956 265.984 195.484 265.836 194.513 265.206 193.507 264.126 192.467 262.629 191.396 260.745 190.298 258.507 189.174 255.947 188.028 253.096 186.861 246.648 184.479 239.417 182.048 231.658 179.59 223.625 177.125 215.571 174.675 207.751 172.26 200.418 169.903 193.826 167.623 190.888 166.519 188.23 165.442 185.884 164.395 183.883 163.381 182.257 162.402 181.039 161.461 180.261 160.561 179.953 159.703 179.986 159.291 180.148 158.891 180.444 158.504 180.878 158.128 182.174 157.416 184.068 156.758 186.592 156.155 189.777 155.612 193.656 155.13 198.26 154.713 203.62 154.362 209.769 154.081 216.739 153.872 224.56 153.738 242.885 153.704 265 154"/><circle cx="203.293" cy="154.384" r="2" fill="none" stroke="red"/><circle cx="203.832" cy="171.001" r="2" fill="none" stroke="red"/><circle cx="206.54" cy="203.678" r="2" fill="none" stroke="red"/><circle cx="218.244" cy="203.394" r="2" fill="none" stroke="red"/><circle cx="226.37" cy="177.967" r="2" fill="none" stroke="red"/><circle cx="234.306" cy="153.719" r="2" fill="none" stroke="red"/><circle cx="244.541" cy="153.726" r="2" fill="none" stroke="red"/><circle cx="247.234" cy="184.696" r="2" fill="none" stroke="red"/><circle cx="247.771" cy="201.436" r="2" fill="none" stroke="red"/></g></svg>